<?xml version="1.0" encoding="UTF-8"?>
<svg version="1.1" xmlns="http://www.w3.org/2000/svg" width="500" height="500">
<path d="M0 0 C165 0 330 0 500 0 C500 165 500 330 500 500 C335 500 170 500 0 500 C0 335 0 170 0 0 Z " fill="#43690E" transform="translate(0,0)"/>
<path d="M0 0 C5.50528806 4.35033252 9.0841778 9.4537972 10.67578125 16.32421875 C11.42526775 23.94399817 9.83147547 31.51029821 6.05078125 38.19921875 C0.69493774 42.99128926 -5.67990642 46.51364708 -12.94921875 46.32421875 C-14.40706358 46.28647519 -15.86662558 46.2777616 -17.32421875 46.32421875 C-17.65421875 46.65421875 -17.98421875 46.98421875 -18.32421875 47.32421875 C-22.18855134 47.56360218 -26.04660744 47.71929052 -29.91601562 47.84179688 C-35.33672946 48.06572348 -40.09122105 48.90227108 -45.32421875 50.32421875 C-46.99088542 50.32421875 -48.65755208 50.32421875 -50.32421875 50.32421875 C-55.08870738 51.81312145 -57.82966198 56.00399775 -60.44140625 60.05859375 C-63.5836224 68.1226883 -61.93453023 77.98621542 -58.76171875 85.76171875 C-55.95879986 91.58674213 -52.5338326 96.45207488 -48.32421875 101.32421875 C-45.32421875 104.93520273 -45.32421875 104.93520273 -45.32421875 108.32421875 C-44.66421875 108.32421875 -44.00421875 108.32421875 -43.32421875 108.32421875 C-43.32421875 108.98421875 -43.32421875 109.64421875 -43.32421875 110.32421875 C-42.88335937 110.73671875 -42.4425 111.14921875 -41.98828125 111.57421875 C-35.93729165 117.93770077 -34.29857142 128.8477753 -34.32421875 137.32421875 C-34.49375192 143.62520155 -34.49375192 143.62520155 -35.32421875 146.32421875 C-36.31421875 146.98421875 -37.30421875 147.64421875 -38.32421875 148.32421875 C-38.65421875 147.33421875 -38.98421875 146.34421875 -39.32421875 145.32421875 C-41.30421875 146.31421875 -41.30421875 146.31421875 -43.32421875 147.32421875 C-43.32421875 146.00421875 -43.32421875 144.68421875 -43.32421875 143.32421875 C-44.31421875 142.99421875 -45.30421875 142.66421875 -46.32421875 142.32421875 C-45.33421875 141.99421875 -44.34421875 141.66421875 -43.32421875 141.32421875 C-42.40028711 139.46224929 -42.40028711 139.46224929 -42.32421875 137.32421875 C-42.98421875 136.33421875 -43.64421875 135.34421875 -44.32421875 134.32421875 C-43.94921875 131.63671875 -43.94921875 131.63671875 -43.32421875 129.32421875 C-42.66421875 129.32421875 -42.00421875 129.32421875 -41.32421875 129.32421875 C-42.15755208 127.15755208 -42.15755208 127.15755208 -44.32421875 126.32421875 C-43.99421875 124.34421875 -43.66421875 122.36421875 -43.32421875 120.32421875 C-43.98421875 119.99421875 -44.64421875 119.66421875 -45.32421875 119.32421875 C-46.28310067 117.97831822 -47.19284162 116.59710184 -48.07421875 115.19921875 C-50.00565175 112.21043192 -51.95232156 109.54087674 -54.38671875 106.94921875 C-64.26581477 95.6736013 -66.09835054 79.69843859 -65.32421875 65.32421875 C-65.08632872 62.62416695 -64.7526989 60.00221968 -64.32421875 57.32421875 C-66.40832533 57.41155848 -68.49156544 57.51974153 -70.57421875 57.63671875 C-71.734375 57.69472656 -72.89453125 57.75273437 -74.08984375 57.8125 C-77.51969899 58.35514618 -78.68460698 59.22042561 -81.32421875 61.32421875 C-82.64421875 61.32421875 -83.96421875 61.32421875 -85.32421875 61.32421875 C-85.81921875 62.80921875 -85.81921875 62.80921875 -86.32421875 64.32421875 C-87.31421875 63.82921875 -87.31421875 63.82921875 -88.32421875 63.32421875 C-88.01171875 61.38671875 -88.01171875 61.38671875 -87.32421875 59.32421875 C-86.33421875 58.99421875 -85.34421875 58.66421875 -84.32421875 58.32421875 C-87.53340623 58.32421875 -88.24802796 58.73769903 -90.88671875 60.32421875 C-95.64746608 62.819203 -100.04667654 62.89603061 -105.32421875 62.32421875 C-106.80921875 61.82921875 -106.80921875 61.82921875 -108.32421875 61.32421875 C-109.80921875 62.31421875 -109.80921875 62.31421875 -111.32421875 63.32421875 C-111.98421875 62.66421875 -112.64421875 62.00421875 -113.32421875 61.32421875 C-115.31243188 60.92657612 -117.31366214 60.58646526 -119.32421875 60.32421875 C-118.33421875 62.30421875 -117.34421875 64.28421875 -116.32421875 66.32421875 C-117.80921875 66.81921875 -117.80921875 66.81921875 -119.32421875 67.32421875 C-123.92577368 64.85644937 -128.51682524 61.29455089 -130.32421875 56.32421875 C-131.52703168 49.39254425 -130.10649963 44.43793135 -126.2109375 38.64453125 C-119.70565825 30.64424994 -110.32375133 25.3754306 -100.125 23.84375 C-89.69623704 23.37829255 -80.29816597 26.41344247 -72.32421875 33.19921875 C-68.80107797 36.61205862 -65.98181771 40.20922681 -63.32421875 44.32421875 C-63.04449219 43.380625 -62.76476562 42.43703125 -62.4765625 41.46484375 C-57.79398836 26.22352401 -50.64780399 11.98706454 -36.19921875 3.89453125 C-25.35089267 -1.77911019 -11.56828048 -7.05987139 0 0 Z " fill="#F4F7F2" transform="translate(305.32421875,147.67578125)"/>
<path d="M0 0 C1.52631376 1.28518602 3.0477265 2.57623211 4.5625 3.875 C5.17351562 4.35324219 5.78453125 4.83148438 6.4140625 5.32421875 C11.9808111 9.75982437 16.23229118 15.26348162 20.5625 20.875 C21.17222656 21.65746094 21.78195312 22.43992188 22.41015625 23.24609375 C34.40320707 39.44627402 43.21775808 60.56199954 42.5625 80.875 C42.2325 80.875 41.9025 80.875 41.5625 80.875 C41.21638672 79.02648437 41.21638672 79.02648437 40.86328125 77.140625 C39.00413005 67.55765147 36.93731604 58.67104922 32.5625 49.875 C32.27358887 49.28235352 31.98467773 48.68970703 31.68701172 48.07910156 C27.49081961 39.53864207 22.86597587 32.06121115 16.5625 24.875 C15.96050781 24.12992188 15.35851562 23.38484375 14.73828125 22.6171875 C1.83473176 7.08964576 -16.36642624 -2.46958682 -35.4375 -8.125 C-36.1382666 -8.33672852 -36.8390332 -8.54845703 -37.56103516 -8.76660156 C-64.0543453 -16.48642548 -92.6533708 -12.36657502 -116.80664062 0.67114258 C-123.55443901 4.44277049 -129.56563102 8.85412653 -135.4375 13.875 C-136.0253125 14.3184375 -136.613125 14.761875 -137.21875 15.21875 C-154.75725833 28.78627531 -167.75825332 54.66830013 -171.12841797 76.08154297 C-173.60302079 98.44679212 -171.65778679 119.40823995 -162.4375 139.875 C-162.00824219 140.87917969 -161.57898438 141.88335937 -161.13671875 142.91796875 C-150.21973269 166.7807613 -128.93394292 185.84208547 -104.640625 195.44921875 C-95.74521324 198.57387288 -86.71738169 200.37509797 -77.4375 201.875 C-77.4375 202.205 -77.4375 202.535 -77.4375 202.875 C-90.73489716 203.84208343 -104.40131054 199.15050206 -116.4375 193.875 C-117.41976562 193.44574219 -118.40203125 193.01648438 -119.4140625 192.57421875 C-146.44917486 179.91265557 -167.36295782 156.59090508 -177.48999023 128.64550781 C-181.89728077 116.02680408 -183.62431503 104.51697793 -183.62280273 91.16943359 C-183.62498735 89.0124939 -183.64318102 86.85606819 -183.66210938 84.69921875 C-183.69160652 77.49509925 -183.39267839 70.8608381 -181.4375 63.875 C-181.10298828 62.45767578 -181.10298828 62.45767578 -180.76171875 61.01171875 C-178.9400312 54.00436847 -176.40314644 47.47423127 -173.4375 40.875 C-173.08042969 40.05386719 -172.72335938 39.23273438 -172.35546875 38.38671875 C-165.04633125 22.60621341 -153.12078845 9.3545848 -139.4375 -1.125 C-138.65761719 -1.73214844 -137.87773437 -2.33929688 -137.07421875 -2.96484375 C-125.51880291 -11.52944608 -112.22452659 -17.25289891 -98.4375 -21.125 C-97.32890625 -21.4446875 -96.2203125 -21.764375 -95.078125 -22.09375 C-62.28106643 -30.10751092 -26.26780866 -20.74604708 0 0 Z " fill="#F9FAF8" transform="translate(320.4375,113.125)"/>
<path d="M0 0 C19.07211761 -1.30037166 40.34572254 10.63992595 54.34375 22.56640625 C70.63607145 37.49304781 84.82227818 59.3052423 86.17700195 81.95996094 C86.79567068 115.01806811 80.16749806 139.97217947 56.875 164.5625 C45.84592573 175.36243838 32.4109844 182.06040136 17.8125 186.75 C16.83240967 187.06662598 16.83240967 187.06662598 15.83251953 187.38964844 C-6.6744116 194.29653736 -32.04277032 190.78615367 -52.63354492 180.01147461 C-75.9365714 167.3118158 -93.82460809 146.63135269 -101.59082031 121.05419922 C-103.38446931 114.37517162 -104.41433273 107.90554544 -104 101 C-103.67 101 -103.34 101 -103 101 C-102.76925781 102.16015625 -102.53851563 103.3203125 -102.30078125 104.515625 C-97.08051408 129.88988139 -85.51125779 150.15545378 -63.9375 165.125 C-46.57394659 176.36024044 -28.4596528 180.28168289 -8 181 C-8 181.66 -8 182.32 -8 183 C-6.56260487 183.02712066 -5.12506137 183.04645067 -3.6875 183.0625 C-2.88699219 183.07410156 -2.08648437 183.08570313 -1.26171875 183.09765625 C1.16861334 183.09657855 1.16861334 183.09657855 4 182 C4 181.01 4 180.02 4 179 C5.13695312 178.64808594 6.27390625 178.29617188 7.4453125 177.93359375 C22.37126981 173.2094495 35.27606862 167.73217888 47 157 C47.85335937 156.23945313 48.70671875 155.47890625 49.5859375 154.6953125 C65.48932695 139.77059317 75.49679775 117.41304999 76.23828125 95.62890625 C76.75006916 67.49678172 68.22384227 45.11455594 48.875 24.4375 C35.19691089 11.11315458 18.12903645 5.41484307 0 1 C0 0.67 0 0.34 0 0 Z " fill="#F9FAF7" transform="translate(266,115)"/>
<path d="M0 0 C4.14557259 3.3068172 7.72158763 7.37207186 9.6796875 12.33984375 C9.875 15.13671875 9.875 15.13671875 9.8046875 18.08984375 C9.78664063 19.0746875 9.76859375 20.05953125 9.75 21.07421875 C9.72679687 21.821875 9.70359375 22.56953125 9.6796875 23.33984375 C8.1946875 23.83484375 8.1946875 23.83484375 6.6796875 24.33984375 C6.1846875 25.82484375 6.1846875 25.82484375 5.6796875 27.33984375 C5.0196875 27.66984375 4.3596875 27.99984375 3.6796875 28.33984375 C3.3496875 29.32984375 3.0196875 30.31984375 2.6796875 31.33984375 C1.69221098 32.92363574 0.6679143 34.48478739 -0.3828125 36.02734375 C-0.93066406 36.83558594 -1.47851562 37.64382812 -2.04296875 38.4765625 C-2.46449219 39.09144531 -2.88601563 39.70632812 -3.3203125 40.33984375 C-4.9703125 39.67984375 -6.6203125 39.01984375 -8.3203125 38.33984375 C-8.3203125 38.99984375 -8.3203125 39.65984375 -8.3203125 40.33984375 C-9.65470539 40.25026645 -10.98785169 40.14213345 -12.3203125 40.02734375 C-13.4340625 39.94033203 -13.4340625 39.94033203 -14.5703125 39.8515625 C-17.3203125 39.33984375 -17.3203125 39.33984375 -20.9140625 37.87109375 C-26.09283619 35.84813528 -31.31510566 35.54608886 -36.8203125 35.15234375 C-37.83351563 35.07048828 -38.84671875 34.98863281 -39.890625 34.90429688 C-42.36656799 34.70575428 -44.84282345 34.51785735 -47.3203125 34.33984375 C-38.52494981 23.68505874 -38.52494981 23.68505874 -31.4765625 22.92578125 C-22.48345397 22.60601274 -13.50000126 23.24999937 -5.3203125 27.33984375 C-5.3203125 26.67984375 -5.3203125 26.01984375 -5.3203125 25.33984375 C-13.66257251 22.94989899 -21.65491023 21.74516095 -30.3203125 21.33984375 C-26.97981027 17.63763108 -22.99481835 15.90908284 -18.3203125 14.33984375 C-12.18422186 14.190183 -5.95422151 19.67133245 -1.3203125 23.33984375 C-4.39912946 19.469331 -7.32104264 16.31072993 -11.3203125 13.33984375 C-6.61057601 11.57369257 -2.28947886 10.85389544 2.6796875 10.33984375 C2.6796875 9.67984375 2.6796875 9.01984375 2.6796875 8.33984375 C1.70386719 8.56800781 0.72804688 8.79617187 -0.27734375 9.03125 C-1.54964844 9.31871094 -2.82195312 9.60617188 -4.1328125 9.90234375 C-5.39738281 10.19238281 -6.66195312 10.48242188 -7.96484375 10.78125 C-11.3203125 11.33984375 -11.3203125 11.33984375 -14.3203125 10.33984375 C-13.3303125 7.36984375 -12.3403125 4.39984375 -11.3203125 1.33984375 C-11.9803125 1.33984375 -12.6403125 1.33984375 -13.3203125 1.33984375 C-13.50207031 2.26216797 -13.50207031 2.26216797 -13.6875 3.203125 C-13.85507812 4.01136719 -14.02265625 4.81960937 -14.1953125 5.65234375 C-14.43894531 6.85310547 -14.43894531 6.85310547 -14.6875 8.078125 C-15.3203125 10.33984375 -15.3203125 10.33984375 -17.3203125 13.33984375 C-20 14.69140625 -20 14.69140625 -23.1953125 15.96484375 C-24.24460937 16.39023438 -25.29390625 16.815625 -26.375 17.25390625 C-29.3203125 18.33984375 -29.3203125 18.33984375 -33.3203125 19.33984375 C-32.6603125 14.71984375 -32.0003125 10.09984375 -31.3203125 5.33984375 C-31.9803125 5.33984375 -32.6403125 5.33984375 -33.3203125 5.33984375 C-33.36929687 6.06429687 -33.41828125 6.78875 -33.46875 7.53515625 C-33.54351562 8.50195312 -33.61828125 9.46875 -33.6953125 10.46484375 C-33.76492188 11.41617188 -33.83453125 12.3675 -33.90625 13.34765625 C-34.55205216 18.01449074 -35.22752652 21.25259554 -38.6328125 24.640625 C-39.963125 25.63642578 -39.963125 25.63642578 -41.3203125 26.65234375 C-42.2071875 27.32910156 -43.0940625 28.00585938 -44.0078125 28.703125 C-46.3203125 30.33984375 -46.3203125 30.33984375 -48.3203125 31.33984375 C-48.5003053 26.12005247 -48.29126058 22.26721394 -46.3203125 17.33984375 C-46.9803125 17.33984375 -47.6403125 17.33984375 -48.3203125 17.33984375 C-49.36367522 20.74925737 -49.35261799 23.8523315 -49.3828125 27.40234375 C-49.88320812 35.180423 -53.42726506 39.55044064 -58.3203125 45.33984375 C-58.6503125 45.99984375 -58.9803125 46.65984375 -59.3203125 47.33984375 C-60.3103125 47.00984375 -61.3003125 46.67984375 -62.3203125 46.33984375 C-61.57650285 31.4636507 -53.85252773 18.99170007 -43.3828125 8.77734375 C-32.1190891 -0.18766059 -13.66161748 -8.23801397 0 0 Z " fill="#F9FAF7" transform="translate(305.3203125,147.66015625)"/>
<path d="M0 0 C5.79870964 4.10027102 10.26782028 8.98035529 14 15 C14 15.66 14 16.32 14 17 C12 18.3125 12 18.3125 9 19 C2.92343861 16.61005535 -1.65636207 11.71013238 -6 7 C-6.33 7.66 -6.66 8.32 -7 9 C-6.071875 9.4021875 -6.071875 9.4021875 -5.125 9.8125 C-3 11 -3 11 -1 14 C-3.37846433 13.77002126 -5.75061266 13.51678509 -8.125 13.25 C-9.12273437 13.1571875 -9.12273437 13.1571875 -10.140625 13.0625 C-15.11334046 12.47747465 -17.95637666 10.82618836 -22 8 C-25.17505977 6.90778011 -25.17505977 6.90778011 -28.375 6.25 C-29.43460938 6.00765625 -30.49421875 5.7653125 -31.5859375 5.515625 C-32.78089844 5.26039063 -32.78089844 5.26039063 -34 5 C-34 5.66 -34 6.32 -34 7 C-32.824375 7.103125 -31.64875 7.20625 -30.4375 7.3125 C-26.17514097 7.82914958 -22.85912466 9.1508361 -19 11 C-21.28827539 13.28827539 -22.27122511 13.42255351 -25.375 14 C-27.87830774 14.46884694 -29.86832572 14.93404337 -32.15234375 16.078125 C-34.80157741 17.39994137 -36.14866325 16.76035647 -39 16 C-40.60310441 15.64105575 -42.2073559 15.28721008 -43.8125 14.9375 C-45.20844918 14.62551788 -46.60432165 14.31319144 -48 14 C-48 14.66 -48 15.32 -48 16 C-45.03 16.33 -42.06 16.66 -39 17 C-39 17.99 -39 18.98 -39 20 C-40.96722008 21.38123963 -42.96868328 22.71488126 -45 24 C-45.33 24.66 -45.66 25.32 -46 26 C-42.7 24.02 -39.4 22.04 -36 20 C-36.33 22.31 -36.66 24.62 -37 27 C-36.34 27 -35.68 27 -35 27 C-34.67 24.03 -34.34 21.06 -34 18 C-24.57142857 14.57142857 -24.57142857 14.57142857 -19 15 C-20.22934015 18.68802044 -21.93859378 19.72356973 -25 22 C-23.329375 21.1028125 -23.329375 21.1028125 -21.625 20.1875 C-20.99851563 19.85105469 -20.37203125 19.51460937 -19.7265625 19.16796875 C-17.69497635 17.95236507 -17.69497635 17.95236507 -16 15 C-13.25 14.63671875 -13.25 14.63671875 -10 14.6875 C-8.39125 14.69330078 -8.39125 14.69330078 -6.75 14.69921875 C-4 15 -4 15 -2 17 C-2.69867188 17.37511719 -3.39734375 17.75023437 -4.1171875 18.13671875 C-5.02726562 18.64847656 -5.93734375 19.16023438 -6.875 19.6875 C-7.77992188 20.18636719 -8.68484375 20.68523437 -9.6171875 21.19921875 C-12.38182847 23.28856217 -13.16974185 24.663203 -14 28 C-13.67 28.99 -13.34 29.98 -13 31 C-17.79819403 33.55903682 -22.70197223 33.38612745 -28 33 C-29.485 32.505 -29.485 32.505 -31 32 C-31.99 32.66 -32.98 33.32 -34 34 C-34.66 33.34 -35.32 32.68 -36 32 C-37.98821313 31.60235737 -39.98944339 31.26224651 -42 31 C-41.01 32.98 -40.02 34.96 -39 37 C-40.485 37.495 -40.485 37.495 -42 38 C-46.60155493 35.53223062 -51.19260649 31.97033214 -53 27 C-54.20281293 20.0683255 -52.78228088 15.1137126 -48.88671875 9.3203125 C-36.44739846 -5.97773358 -17.0961024 -9.16811709 0 0 Z " fill="#F9FAF7" transform="translate(228,177)"/>
<path d="M0 0 C0.33 0 0.66 0 1 0 C1.43859425 7.74849836 0.23242599 15.05032326 -3.625 21.875 C-8.98084351 26.66707051 -15.35568767 30.18942833 -22.625 30 C-24.08284483 29.96225644 -25.54240683 29.95354285 -27 30 C-27.495 30.495 -27.495 30.495 -28 31 C-31.86433259 31.23938343 -35.72238869 31.39507177 -39.59179688 31.51757812 C-45.01251071 31.74150473 -49.7670023 32.57805233 -55 34 C-56.66666667 34 -58.33333333 34 -60 34 C-62.60824941 35.07398505 -64.63538192 36.42358794 -67 38 C-68.39877562 34.06594357 -68.37501865 32.04389521 -66.953125 28.0859375 C-64.94161721 24.51504981 -63.33402107 22.41930247 -60 20 C-49.56530352 17.4273905 -38.78635748 20.38322364 -28.75 23.1875 C-25.2767371 24.22956401 -25.2767371 24.22956401 -22.953125 23.48828125 C-21 23 -21 23 -18 24 C-18 23.34 -18 22.68 -18 22 C-16.35 22.33 -14.7 22.66 -13 23 C-13 22.34 -13 21.68 -13 21 C-12.34 21 -11.68 21 -11 21 C-9.91087 18.899535 -8.9438798 16.84767375 -8.125 14.625 C-6.7720611 11.46814256 -4.96121968 8.81108154 -3 6 C-2.01 6.33 -1.02 6.66 0 7 C0 4.69 0 2.38 0 0 Z " fill="#9FB383" transform="translate(315,164)"/>
<path d="M0 0 C0.66 0 1.32 0 2 0 C1.125 6.75 1.125 6.75 0 9 C0.65226562 8.855625 1.30453125 8.71125 1.9765625 8.5625 C6.72620177 7.55372706 11.11409188 6.74284694 16 7 C16 7.66 16 8.32 16 9 C11.71 9.99 7.42 10.98 3 12 C5.2275 13.918125 5.2275 13.918125 7.5 15.875 C9.0419478 17.20278838 10.55255198 18.5697835 12 20 C12 20.66 12 21.32 12 22 C8.48637402 20.31752876 5.32896448 18.28600602 2.09765625 16.12109375 C-0.38605119 14.79367469 -2.18179259 14.21094367 -5 14 C-7.95001465 14.94664404 -7.95001465 14.94664404 -10.8125 16.4375 C-11.78832031 16.91058594 -12.76414062 17.38367188 -13.76953125 17.87109375 C-14.50558594 18.24363281 -15.24164063 18.61617187 -16 19 C-14.28103516 19.16435547 -14.28103516 19.16435547 -12.52734375 19.33203125 C-10.99733473 19.49160274 -9.46739005 19.65179195 -7.9375 19.8125 C-7.18533203 19.88275391 -6.43316406 19.95300781 -5.65820312 20.02539062 C-0.57640806 20.57536845 3.39678714 21.76869496 8 24 C8 24.66 8 25.32 8 26 C7.25878906 25.7834375 6.51757812 25.566875 5.75390625 25.34375 C-3.83781937 22.8078715 -16.0878773 19.82143941 -25.26953125 24.7578125 C-27.71778374 26.71221148 -29.88964982 28.68936195 -32 31 C-32.33 31.33 -32.66 31.66 -33 32 C-32.41621582 32.03963867 -31.83243164 32.07927734 -31.23095703 32.12011719 C-8.59262907 33.73809838 -8.59262907 33.73809838 -2 38 C-1.67 38.66 -1.34 39.32 -1 40 C-2.33365476 39.7098066 -3.66690215 39.41774108 -5 39.125 C-5.7425 38.96257812 -6.485 38.80015625 -7.25 38.6328125 C-9.41848834 38.13381376 -11.57220345 37.5706167 -13.71875 36.984375 C-21.03573896 35.1671397 -29.63630986 33.9087188 -37 36 C-41.08196678 38.93553693 -43.12380455 43.44836339 -45 48 C-45.66 47.34 -46.32 46.68 -47 46 C-45.8782037 44.2063257 -44.75245517 42.4151227 -43.625 40.625 C-42.99851563 39.62726563 -42.37203125 38.62953125 -41.7265625 37.6015625 C-40 35 -40 35 -38 33 C-37.6097815 30.01155491 -37.6097815 30.01155491 -37.5 26.625 C-37.31604051 22.55029739 -37.14876911 19.51774298 -35 16 C-34.34 16 -33.68 16 -33 16 C-33.33 20.29 -33.66 24.58 -34 29 C-32.55625 27.700625 -31.1125 26.40125 -29.625 25.0625 C-25.25 21.125 -25.25 21.125 -23 20 C-22.36139231 17.30202898 -21.83174758 14.66633377 -21.375 11.9375 C-21.2409375 11.17888672 -21.106875 10.42027344 -20.96875 9.63867188 C-20.63799878 7.76047742 -20.31799266 5.88039662 -20 4 C-19.34 4 -18.68 4 -18 4 C-18.14133499 5.77119803 -18.28823208 7.54195287 -18.4375 9.3125 C-18.51871094 10.29863281 -18.59992188 11.28476563 -18.68359375 12.30078125 C-19 15 -19 15 -20 18 C-18.64455078 17.36771484 -18.64455078 17.36771484 -17.26171875 16.72265625 C-16.08222656 16.17480469 -14.90273438 15.62695312 -13.6875 15.0625 C-12.51574219 14.51722656 -11.34398437 13.97195312 -10.13671875 13.41015625 C-7 12 -7 12 -4 11 C-2.75049948 8.44598152 -2.75049948 8.44598152 -1.8125 5.4375 C-1.46832031 4.42558594 -1.12414062 3.41367188 -0.76953125 2.37109375 C-0.38861328 1.19740234 -0.38861328 1.19740234 0 0 Z " fill="#547723" transform="translate(292,149)"/>
<path d="M0 0 C2.6258382 1.78870171 3.34201385 3.11189509 5 6 C5.55263322 9.93751167 5.36220775 12.18503256 3.75 15.8125 C1.81803152 18.2274606 0.95224902 19.12230435 -2 20 C-8.96132597 20.66298343 -8.96132597 20.66298343 -12.9375 18.125 C-16.3215355 14.63841797 -16.38966392 11.96407286 -16.359375 7.26171875 C-15.78943134 3.67479071 -13.79773951 2.13161106 -11 0 C-7.46077805 -1.76961098 -3.72473277 -1.03393444 0 0 Z " fill="#D0D2CD" transform="translate(327,339)"/>
<path d="M0 0 C4.47187381 0.36654703 6.40039034 1.45585005 9.8125 4.3125 C11.93576225 6.98965676 11.81383584 8.27576426 11.6875 11.75 C10.73895533 15.61193186 9.55836726 17.48342464 6.8125 20.3125 C3.61076746 21.91336627 0.28672941 21.81167089 -3.1875 21.3125 C-5.9975346 19.51886089 -7.69690468 18.29369065 -9.1875 15.3125 C-9.60818924 12.25348826 -9.67778455 9.36491674 -9.1875 6.3125 C-6.75 3.3125 -6.75 3.3125 -4.1875 1.3125 C-3.1875 0.3125 -3.1875 0.3125 0 0 Z " fill="#CFD1CC" transform="translate(404.1875,337.6875)"/>
<path d="M0 0 C5.91377716 -0.62250286 10.77958661 1.42735024 16 4 C16.66 4.66 17.32 5.32 18 6 C20.36030696 6.45847689 22.7398174 6.82143131 25.125 7.125 C26.40632813 7.29257813 27.68765625 7.46015625 29.0078125 7.6328125 C30.48894531 7.81457031 30.48894531 7.81457031 32 8 C29.525 6.02 29.525 6.02 27 4 C27.33 3.01 27.66 2.02 28 1 C28.56847656 1.60328125 29.13695312 2.2065625 29.72265625 2.828125 C34.20255618 7.46508319 38.19806697 11.16075618 44 14 C44 14.66 44 15.32 44 16 C41 15 38 14 35 13 C28.9805438 14.93530188 23.87614992 19.10945485 19 23 C20.32718635 18.71216719 21.80511091 17.05406009 25.625 14.75 C27.09420672 13.85086403 28.5559148 12.93895252 30 12 C30 11.67 30 11.34 30 11 C21.9685299 10.15653585 21.9685299 10.15653585 15 13.375 C14.34 14.24125 13.68 15.1075 13 16 C10.6875 17.3125 10.6875 17.3125 9 18 C9 17.01 9 16.02 9 15 C10.63631892 13.95107762 12.30485863 12.95093297 14 12 C14.33 11.34 14.66 10.68 15 10 C14.16855469 10.2165625 13.33710938 10.433125 12.48046875 10.65625 C11.39378906 10.9346875 10.30710938 11.213125 9.1875 11.5 C8.10855469 11.7784375 7.02960938 12.056875 5.91796875 12.34375 C3 13 3 13 0 13 C-0.33 15.97 -0.66 18.94 -1 22 C-1.66 22 -2.32 22 -3 22 C-3 20.02 -3 18.04 -3 16 C-3.48210937 16.3609375 -3.96421875 16.721875 -4.4609375 17.09375 C-5.09257812 17.5578125 -5.72421875 18.021875 -6.375 18.5 C-7.00148437 18.9640625 -7.62796875 19.428125 -8.2734375 19.90625 C-10 21 -10 21 -12 21 C-10.66667905 17.00003714 -8.5042173 16.16217663 -5 14 C-7.96687001 12.35173889 -10.65626525 11.55728913 -14 11 C-14 10.34 -14 9.68 -14 9 C-9.57408148 8.82977236 -6.90304134 9.04847933 -3 11 C-0.26695106 10.71968729 1.89806441 10.04181973 4.4375 9 C7.27949909 7.89092718 9.98593192 7.42056764 13 7 C12.67 6.34 12.34 5.68 12 5 C9.19521805 4.08514427 9.19521805 4.08514427 5.9375 3.375 C4.83277344 3.11460937 3.72804687 2.85421875 2.58984375 2.5859375 C1.73519531 2.39257812 0.88054687 2.19921875 0 2 C0 1.34 0 0.68 0 0 Z " fill="#68873D" transform="translate(194,182)"/>
<path d="M0 0 C1.98 0 3.96 0 6 0 C8.1171875 2.625 8.1171875 2.625 9.875 6 C10.47054688 7.11375 11.06609375 8.2275 11.6796875 9.375 C12.33324219 10.674375 12.33324219 10.674375 13 12 C13.33 8.04 13.66 4.08 14 0 C15.65 0 17.3 0 19 0 C19 6.93 19 13.86 19 21 C17.02 21 15.04 21 13 21 C10.8828125 18.59375 10.8828125 18.59375 9.125 15.5 C8.52945312 14.4790625 7.93390625 13.458125 7.3203125 12.40625 C6.88460938 11.6121875 6.44890625 10.818125 6 10 C5.67 13.63 5.34 17.26 5 21 C3.35 21 1.7 21 0 21 C0 14.07 0 7.14 0 0 Z " fill="#CFD1CB" transform="translate(418,338)"/>
<path d="M0 0 C11.53245501 -0.27458226 11.53245501 -0.27458226 15 2 C16.40457737 4.80915474 16.24895157 6.88810534 16 10 C14.5 12.375 14.5 12.375 13 14 C13.7425 15.175625 13.7425 15.175625 14.5 16.375 C16 19 16 19 16 21 C14.02 21 12.04 21 10 21 C7 15.25 7 15.25 7 13 C6.34 13 5.68 13 5 13 C5 15.64 5 18.28 5 21 C3.35 21 1.7 21 0 21 C0 14.07 0 7.14 0 0 Z " fill="#CCCFC8" transform="translate(192,338)"/>
<path d="M0 0 C1.65 0 3.3 0 5 0 C7.01953125 2.1875 7.01953125 2.1875 8.8125 5 C9.41707031 5.928125 10.02164063 6.85625 10.64453125 7.8125 C11.09183594 8.534375 11.53914063 9.25625 12 10 C12.33 6.7 12.66 3.4 13 0 C14.65 0 16.3 0 18 0 C18 6.93 18 13.86 18 21 C16.35 21 14.7 21 13 21 C10.98046875 18.8125 10.98046875 18.8125 9.1875 16 C8.58292969 15.071875 7.97835937 14.14375 7.35546875 13.1875 C6.68451172 12.1046875 6.68451172 12.1046875 6 11 C5.67 14.3 5.34 17.6 5 21 C3.35 21 1.7 21 0 21 C0 14.07 0 7.14 0 0 Z " fill="#D2D4D0" transform="translate(114,338)"/>
<path d="M0 0 C1.65 0 3.3 0 5 0 C5 2.64 5 5.28 5 8 C7.31 8 9.62 8 12 8 C12 5.36 12 2.72 12 0 C13.98 0 15.96 0 18 0 C18 6.93 18 13.86 18 21 C16.02 21 14.04 21 12 21 C12 18.36 12 15.72 12 13 C9.69 13 7.38 13 5 13 C5 15.64 5 18.28 5 21 C3.35 21 1.7 21 0 21 C0 14.07 0 7.14 0 0 Z " fill="#C8CCC3" transform="translate(260,338)"/>
<path d="M0 0 C2.875 1.25 2.875 1.25 5 3 C5.8125 5.1875 5.8125 5.1875 6 7 C4.00045254 7.04254356 1.99958364 7.04080783 0 7 C-0.33 6.67 -0.66 6.34 -1 6 C-3.45809998 5.7499227 -3.45809998 5.7499227 -6 6 C-6.66 6.66 -7.32 7.32 -8 8 C-7.67673447 11.59679066 -7.67673447 11.59679066 -7 15 C-4.09926819 15.67801034 -4.09926819 15.67801034 -1 16 C-0.34 15.34 0.32 14.68 1 14 C-0.65 13.67 -2.3 13.34 -4 13 C-4 11.68 -4 10.36 -4 9 C-0.37 9 3.26 9 7 9 C7.35288435 12.7935068 7.28393415 14.55941253 5.1875 17.8125 C2.20246261 20.79753739 0.32044163 20.96898952 -3.875 21.375 C-7.45949005 21.34859492 -7.94066781 21.04797071 -10.9375 18.625 C-14.1398393 14.54929544 -14.52171797 12.21717968 -14 7 C-10.36664874 0.89922363 -6.93956752 -0.47047915 0 0 Z " fill="#CDD0CA" transform="translate(183,338)"/>
<path d="M0 0 C1.98 0 3.96 0 6 0 C9.2414796 6.82779745 11.71019473 13.80172917 14 21 C12.02 21 10.04 21 8 21 C7.67 20.01 7.34 19.02 7 18 C4.36 17.67 1.72 17.34 -1 17 C-1.33 18.32 -1.66 19.64 -2 21 C-3.65 21 -5.3 21 -7 21 C-4.96192707 13.8821847 -2.59655258 6.93292719 0 0 Z " fill="#CFD1CC" transform="translate(154,338)"/>
<path d="M0 0 C1.98 0 3.96 0 6 0 C9.2414796 6.82779745 11.71019473 13.80172917 14 21 C12.02 21 10.04 21 8 21 C7.67 20.01 7.34 19.02 7 18 C4.36 17.67 1.72 17.34 -1 17 C-1.33 18.32 -1.66 19.64 -2 21 C-3.65 21 -5.3 21 -7 21 C-4.96192707 13.8821847 -2.59655258 6.93292719 0 0 Z " fill="#CFD1CC" transform="translate(98,338)"/>
<path d="M0 0 C1.80078125 0.0703125 1.80078125 0.0703125 4 1 C5.29709043 3.32686479 6.26361388 5.40350718 7.1875 7.875 C7.44797119 8.55320801 7.70844238 9.23141602 7.97680664 9.93017578 C10.91422375 17.95577108 12.57875794 27.61903671 10 36 C9.01 36.66 8.02 37.32 7 38 C6.505 36.515 6.505 36.515 6 35 C4.68 35.66 3.36 36.32 2 37 C2 35.68 2 34.36 2 33 C1.01 32.67 0.02 32.34 -1 32 C-0.01 31.67 0.98 31.34 2 31 C2.92393164 29.13803054 2.92393164 29.13803054 3 27 C2.34 26.01 1.68 25.02 1 24 C1.375 21.3125 1.375 21.3125 2 19 C2.66 19 3.32 19 4 19 C3.16666667 16.83333333 3.16666667 16.83333333 1 16 C1.09539062 15.39671875 1.19078125 14.7934375 1.2890625 14.171875 C1.39992188 13.37265625 1.51078125 12.5734375 1.625 11.75 C1.74101562 10.96109375 1.85703125 10.1721875 1.9765625 9.359375 C2.00348792 6.64888316 1.27220983 5.35018916 0 3 C0 2.01 0 1.02 0 0 Z " fill="#89A167" transform="translate(260,258)"/>
<path d="M0 0 C1.21236328 0.57041016 1.21236328 0.57041016 2.44921875 1.15234375 C3.37154297 1.60287109 3.37154297 1.60287109 4.3125 2.0625 C4.6425 1.4025 4.9725 0.7425 5.3125 0.0625 C6.81071059 3.43347383 7.3125 5.26692119 7.3125 9.0625 C6.42046875 9.09988281 5.5284375 9.13726562 4.609375 9.17578125 C2.85367188 9.27439453 2.85367188 9.27439453 1.0625 9.375 C-0.09765625 9.43300781 -1.2578125 9.49101562 -2.453125 9.55078125 C-5.88298024 10.09342743 -7.04788823 10.95870686 -9.6875 13.0625 C-11.0075 13.0625 -12.3275 13.0625 -13.6875 13.0625 C-14.0175 14.0525 -14.3475 15.0425 -14.6875 16.0625 C-15.3475 15.7325 -16.0075 15.4025 -16.6875 15.0625 C-16.375 13.125 -16.375 13.125 -15.6875 11.0625 C-14.6975 10.7325 -13.7075 10.4025 -12.6875 10.0625 C-13.6775 10.0625 -14.6675 10.0625 -15.6875 10.0625 C-17.0075 10.0625 -18.3275 10.0625 -19.6875 10.0625 C-18.19776819 6.24979656 -16.10086174 4.64335134 -12.75 2.375 C-11.87472656 1.77300781 -10.99945313 1.17101562 -10.09765625 0.55078125 C-5.92086081 -2.02840686 -4.31699195 -2.06464832 0 0 Z " fill="#ECF0E7" transform="translate(233.6875,195.9375)"/>
<path d="M0 0 C1.65 0 3.3 0 5 0 C5.33 2.64 5.66 5.28 6 8 C6.54527344 7.13375 6.54527344 7.13375 7.1015625 6.25 C8.62698908 3.99706228 10.10048075 1.95085761 12 0 C15.375 -0.5 15.375 -0.5 18 0 C17.57847656 0.54269531 17.15695313 1.08539063 16.72265625 1.64453125 C16.17480469 2.35996094 15.62695312 3.07539063 15.0625 3.8125 C14.51722656 4.52019531 13.97195312 5.22789062 13.41015625 5.95703125 C11.83143752 8.04125052 11.83143752 8.04125052 11 11 C12.43259921 13.3258323 12.43259921 13.3258323 14.4375 15.625 C18 19.9334638 18 19.9334638 18 21 C15.375 21.4375 15.375 21.4375 12 21 C9.66877878 18.9050512 7.82671379 16.53926173 6 14 C5.67 16.31 5.34 18.62 5 21 C3.35 21 1.7 21 0 21 C0 14.07 0 7.14 0 0 Z " fill="#D2D4D0" transform="translate(45,338)"/>
<path d="M0 0 C1.65 0 3.3 0 5 0 C5.33 4.95 5.66 9.9 6 15 C7.65 15 9.3 15 11 15 C11.33 10.05 11.66 5.1 12 0 C13.65 0 15.3 0 17 0 C17.13559675 2.56428515 17.23433188 5.12135216 17.3125 7.6875 C17.35439453 8.40873047 17.39628906 9.12996094 17.43945312 9.87304688 C17.53407233 14.0173679 17.33335273 15.56089398 14.734375 18.984375 C10.64482198 21.9989598 8.97375912 21.71053702 4 21 C1.76953125 19.51171875 1.76953125 19.51171875 0 17 C-0.480528 14.06575962 -0.37776032 11.21305659 -0.25 8.25 C-0.23195313 7.45722656 -0.21390625 6.66445313 -0.1953125 5.84765625 C-0.14833082 3.89791652 -0.07659044 1.94880122 0 0 Z " fill="#D1D3CE" transform="translate(349,338)"/>
<path d="M0 0 C2.875 1.25 2.875 1.25 5 3 C5.8125 5.1875 5.8125 5.1875 6 7 C4.00045254 7.04254356 1.99958364 7.04080783 0 7 C-0.33 6.67 -0.66 6.34 -1 6 C-3.5 5.83333333 -3.5 5.83333333 -6 6 C-7.40432936 7.17718985 -7.40432936 7.17718985 -7.125 10.5 C-7.40432936 13.82281015 -7.40432936 13.82281015 -6 15 C-3 15.16666667 -3 15.16666667 0 15 C0.33 14.67 0.66 14.34 1 14 C2.66617115 13.95936168 4.33388095 13.957279 6 14 C5.64978759 16.53903996 5.15988127 17.82093298 3.4375 19.75 C-0.05779976 21.54246141 -3.21037418 21.75647041 -7 21 C-10.2561101 19.10553594 -12.3487671 17.69599157 -13.73046875 14.09765625 C-14.50486623 10.10299203 -14.16508779 8.3183836 -12.25 4.625 C-8.35799482 0.08432729 -5.85298183 -0.5045674 0 0 Z " fill="#CED1CA" transform="translate(250,338)"/>
<path d="M0 0 C2.4375 1.3125 2.4375 1.3125 4 3 C4 3.99 4 4.98 4 6 C0.37471432 6.20140476 -1.86501708 5.85776765 -5 4 C-5 5.32 -5 6.64 -5 8 C-3.329375 8.433125 -3.329375 8.433125 -1.625 8.875 C2 10 2 10 4 12 C4.32339354 15.03989923 4.45670212 17.14368353 3 19.875 C-0.21011807 21.68069141 -3.46579834 21.66132949 -7 21 C-9.5 19.125 -9.5 19.125 -11 17 C-11 16.34 -11 15.68 -11 15 C-9.02 15 -7.04 15 -5 15 C-5 15.66 -5 16.32 -5 17 C-3.68 17 -2.36 17 -1 17 C-1.33 16.01 -1.66 15.02 -2 14 C-4.31104818 12.94952356 -6.64583651 11.94992562 -9 11 C-9.66 10.34 -10.32 9.68 -11 9 C-10.8125 5.5 -10.8125 5.5 -10 2 C-6.28986601 -0.47342266 -4.38939738 -0.38503486 0 0 Z " fill="#D0D2CD" transform="translate(451,338)"/>
<path d="M0 0 C2.4375 1.3125 2.4375 1.3125 4 3 C4 3.99 4 4.98 4 6 C0.37471432 6.20140476 -1.86501708 5.85776765 -5 4 C-5 5.32 -5 6.64 -5 8 C-3.329375 8.433125 -3.329375 8.433125 -1.625 8.875 C2 10 2 10 4 12 C4.32339354 15.03989923 4.45670212 17.14368353 3 19.875 C-0.21011807 21.68069141 -3.46579834 21.66132949 -7 21 C-9.5 19.125 -9.5 19.125 -11 17 C-11 16.34 -11 15.68 -11 15 C-9.02 15 -7.04 15 -5 15 C-5 15.66 -5 16.32 -5 17 C-3.68 17 -2.36 17 -1 17 C-1.33 16.01 -1.66 15.02 -2 14 C-4.31104818 12.94952356 -6.64583651 11.94992562 -9 11 C-9.66 10.34 -10.32 9.68 -11 9 C-10.8125 5.5 -10.8125 5.5 -10 2 C-6.28986601 -0.47342266 -4.38939738 -0.38503486 0 0 Z " fill="#D0D2CD" transform="translate(304,338)"/>
<path d="M0 0 C2.4375 1.875 2.4375 1.875 4 4 C4 4.66 4 5.32 4 6 C2.02 6 0.04 6 -2 6 C-2 5.34 -2 4.68 -2 4 C-2.99 4.33 -3.98 4.66 -5 5 C-5 5.66 -5 6.32 -5 7 C-4.43410156 7.27714844 -3.86820312 7.55429687 -3.28515625 7.83984375 C-2.55167969 8.20207031 -1.81820312 8.56429688 -1.0625 8.9375 C0.03384766 9.47697266 0.03384766 9.47697266 1.15234375 10.02734375 C3 11 3 11 4 12 C4.57416268 17.28229665 4.57416268 17.28229665 2.5 19.875 C-1.25284424 21.56377991 -3.88668458 21.39174433 -8 21 C-10 19.6875 -10 19.6875 -11 18 C-11 17.01 -11 16.02 -11 15 C-7.80097361 14.91113816 -5.07322544 15.08941469 -2 16 C-2 15.34 -2 14.68 -2 14 C-3.11375 13.54625 -4.2275 13.0925 -5.375 12.625 C-9 11 -9 11 -11 9 C-11.375 6.0625 -11.375 6.0625 -11 3 C-7.94006533 -0.67192161 -4.53695608 -0.56711951 0 0 Z " fill="#D1D3CE" transform="translate(85,338)"/>
<path d="M0 0 C0.82822266 0.04962891 1.65644531 0.09925781 2.50976562 0.15039062 C3.73469727 0.17262695 3.73469727 0.17262695 4.984375 0.1953125 C12.12078971 0.41708156 18.6269878 1.83839408 25.19726562 4.71289062 C24.05664062 6.27148438 24.05664062 6.27148438 22.19726562 7.71289062 C19.52539062 7.49804688 19.52539062 7.49804688 16.44726562 6.77539062 C11.11527838 5.72057047 8.21332909 5.76788642 3.19726562 7.71289062 C-0.2466157 8.57386096 -1.37573561 8.85522355 -4.80273438 7.71289062 C-5.79273438 9.19789063 -5.79273438 9.19789063 -6.80273438 10.71289062 C-10.42773438 11.90039062 -10.42773438 11.90039062 -13.80273438 12.71289062 C-11.26225441 5.09145072 -8.54951084 -0.14374678 0 0 Z " fill="#F2F5EE" transform="translate(261.802734375,183.287109375)"/>
<path d="M0 0 C3.90590763 -0.17754126 6.68902394 -0.20731737 10 2 C10.33 2.66 10.66 3.32 11 4 C18.12600133 4.35368021 23.47059106 3.95671348 30 1 C30 2.65 30 4.3 30 6 C28.58521865 6.64995297 27.16808513 7.29478722 25.75 7.9375 C24.96109375 8.29714844 24.1721875 8.65679687 23.359375 9.02734375 C15.43321414 12.29491669 8.77954741 10.96363711 1 8 C1.33 7.01 1.66 6.02 2 5 C1.34 4.34 0.68 3.68 0 3 C0 2.01 0 1.02 0 0 Z " fill="#AABB91" transform="translate(186,208)"/>
<path d="M0 0 C3.27211451 1.02090487 3.27211451 1.02090487 6.375 0 C6.375 0.99 6.375 1.98 6.375 3 C4.6875 3.6875 4.6875 3.6875 2.375 4 C1.55 3.484375 0.725 2.96875 -0.125 2.4375 C-1.3625 1.7259375 -1.3625 1.7259375 -2.625 1 C-4.92787793 1.69140351 -4.92787793 1.69140351 -6.625 3 C-5.305 3.33 -3.985 3.66 -2.625 4 C-2.625 4.33 -2.625 4.66 -2.625 5 C-4.85167765 5.67493341 -7.08145977 6.33963044 -9.3125 7 C-11.17455078 7.556875 -11.17455078 7.556875 -13.07421875 8.125 C-16.14749634 8.88233133 -18.5015083 9.10093869 -21.625 9 C-24.23324941 10.07398505 -26.26038192 11.42358794 -28.625 13 C-28.955 10.69 -29.285 8.38 -29.625 6 C-28.635 6.33 -27.645 6.66 -26.625 7 C-26.295 6.34 -25.965 5.68 -25.625 5 C-24.305 5 -22.985 5 -21.625 5 C-20.965 3.68 -20.305 2.36 -19.625 1 C-18.5525 1.20625 -17.48 1.4125 -16.375 1.625 C-12.59297862 2.00320214 -11.69191517 1.90360252 -8.625 0 C-5.38067643 -1.12543987 -3.2898077 -0.88021611 0 0 Z " fill="#B9C7A4" transform="translate(276.625,189)"/>
<path d="M0 0 C5.28 0 10.56 0 16 0 C16 1.65 16 3.3 16 5 C14.35 5 12.7 5 11 5 C11 10.28 11 15.56 11 21 C9.35 21 7.7 21 6 21 C6 15.39 6 9.78 6 4 C4.02 4 2.04 4 0 4 C0 2.68 0 1.36 0 0 Z " fill="#CBCEC6" transform="translate(368,338)"/>
<path d="M0 0 C5.28 0 10.56 0 16 0 C16 1.32 16 2.64 16 4 C14.02 4 12.04 4 10 4 C10 9.61 10 15.22 10 21 C8.35 21 6.7 21 5 21 C5 15.72 5 10.44 5 5 C3.35 5 1.7 5 0 5 C0 3.35 0 1.7 0 0 Z " fill="#CACEC5" transform="translate(219,338)"/>
<path d="M0 0 C0.66 0 1.32 0 2 0 C1.67 4.29 1.34 8.58 1 13 C2.32 12.67 3.64 12.34 5 12 C4.01 13.32 3.02 14.64 2 16 C2.87567627 16.05945801 2.87567627 16.05945801 3.76904297 16.12011719 C26.40737093 17.73809838 26.40737093 17.73809838 33 22 C33.495 22.99 33.495 22.99 34 24 C32.66634524 23.7098066 31.33309785 23.41774108 30 23.125 C29.2575 22.96257812 28.515 22.80015625 27.75 22.6328125 C25.58151166 22.13381376 23.42779655 21.5706167 21.28125 20.984375 C13.96426104 19.1671397 5.36369014 17.9087188 -2 20 C-6.08196678 22.93553693 -8.12380455 27.44836339 -10 32 C-10.66 31.34 -11.32 30.68 -12 30 C-10.8782037 28.2063257 -9.75245517 26.4151227 -8.625 24.625 C-7.99851563 23.62726563 -7.37203125 22.62953125 -6.7265625 21.6015625 C-5 19 -5 19 -3 17 C-2.6097815 14.01155491 -2.6097815 14.01155491 -2.5 10.625 C-2.31604051 6.55029739 -2.14876911 3.51774298 0 0 Z " fill="#456C10" transform="translate(257,165)"/>
<path d="M0 0 C1.65 0 3.3 0 5 0 C5 5.61 5 11.22 5 17 C6.98 17 8.96 17 11 17 C11 18.32 11 19.64 11 21 C7.37 21 3.74 21 0 21 C0 14.07 0 7.14 0 0 Z " fill="#D3D4D1" transform="translate(335,338)"/>
<path d="M0 0 C1.98 0 3.96 0 6 0 C6 6.93 6 13.86 6 21 C4.02 21 2.04 21 0 21 C0 14.07 0 7.14 0 0 Z " fill="#BFC6B7" transform="translate(211,338)"/>
<path d="M0 0 C1.98 0 3.96 0 6 0 C6 6.93 6 13.86 6 21 C4.02 21 2.04 21 0 21 C0 14.07 0 7.14 0 0 Z " fill="#C0C6B7" transform="translate(65,338)"/>
<path d="M0 0 C2.475 0.495 2.475 0.495 5 1 C5.33 1.99 5.66 2.98 6 4 C3.11787597 6.88212403 0.45227459 6.37608879 -3.4921875 6.55859375 C-6.41024564 7.07220834 -7.67414648 8.23442294 -10 10 C-11.32 10 -12.64 10 -14 10 C-14.33 10.99 -14.66 11.98 -15 13 C-15.66 12.67 -16.32 12.34 -17 12 C-16.6875 10.0625 -16.6875 10.0625 -16 8 C-15.01 7.67 -14.02 7.34 -13 7 C-12.855625 6.360625 -12.71125 5.72125 -12.5625 5.0625 C-12 3 -12 3 -10.1875 1.75 C-8 1 -8 1 -4 1 C-3.67 1.66 -3.34 2.32 -3 3 C-2.01 2.67 -1.02 2.34 0 2 C0 1.34 0 0.68 0 0 Z " fill="#9FB383" transform="translate(234,199)"/>
<path d="M0 0 C2.29141286 -0.05384521 4.58318188 -0.09272087 6.875 -0.125 C8.78925781 -0.15980469 8.78925781 -0.15980469 10.7421875 -0.1953125 C14 0 14 0 16 2 C15.43181818 7.56818182 15.43181818 7.56818182 14 9 C11.125 9.3125 11.125 9.3125 8 9 C6.375 7 6.375 7 5 5 C3.68 5 2.36 5 1 5 C0.67 6.32 0.34 7.64 0 9 C0 6.03 0 3.06 0 0 Z " fill="#B0BAA2" transform="translate(195,404)"/>
<path d="M0 0 C3.0625 0.3125 3.0625 0.3125 5 1.375 C6.69431173 4.46462727 5.80201685 6.98467418 5.0625 10.3125 C4.0625 11.3125 4.0625 11.3125 0.625 11.5 C-2.9375 11.3125 -2.9375 11.3125 -4.9375 9.3125 C-5.1875 5.8125 -5.1875 5.8125 -4.9375 2.3125 C-2.9375 0.3125 -2.9375 0.3125 0 0 Z " fill="#4A6E19" transform="translate(320.9375,342.6875)"/>
<path d="M0 0 C1.65 0 3.3 0 5 0 C5 6.93 5 13.86 5 21 C3.35 21 1.7 21 0 21 C0 14.07 0 7.14 0 0 Z " fill="#D2D3CF" transform="translate(387,338)"/>
<path d="M0 0 C0.44730469 0.38671875 0.89460937 0.7734375 1.35546875 1.171875 C7.76758039 6.82860751 7.76758039 6.82860751 14.8125 11.625 C15.534375 12.07875 16.25625 12.5325 17 13 C17 13.66 17 14.32 17 15 C14 14 11 13 8 12 C1.9805438 13.93530188 -3.12385008 18.10945485 -8 22 C-6.6717914 17.71616238 -5.17477484 16.0216474 -1.375 13.6875 C-0.55773437 13.17574219 0.25953125 12.66398438 1.1015625 12.13671875 C1.72804687 11.76160156 2.35453125 11.38648438 3 11 C-0.63616656 9.0210244 -3.88425629 8.4748935 -8 8 C-8 7.67 -8 7.34 -8 7 C-3.71 7 0.58 7 5 7 C3.35 5.68 1.7 4.36 0 3 C0 2.01 0 1.02 0 0 Z " fill="#4B7117" transform="translate(221,183)"/>
<path d="M0 0 C3 0.25 3 0.25 5 2.25 C5.25 5.75 5.25 5.75 5 9.25 C3 11.25 3 11.25 0 11.5 C-3 11.25 -3 11.25 -5 9.25 C-5.25 5.75 -5.25 5.75 -5 2.25 C-3 0.25 -3 0.25 0 0 Z " fill="#456A12" transform="translate(405,342.75)"/>
<path d="M0 0 C1.65 0 3.3 0 5 0 C5.33 2.31 5.66 4.62 6 7 C6.66 7 7.32 7 8 7 C8.144375 6.030625 8.28875 5.06125 8.4375 4.0625 C9 1 9 1 10 0 C12.67058851 -0.14115161 15.32432238 -0.04247107 18 0 C18 0.66 18 1.32 18 2 C16.68 2 15.36 2 14 2 C14 2.99 14 3.98 14 5 C14.99 5.33 15.98 5.66 17 6 C16.01 6 15.02 6 14 6 C14 6.99 14 7.98 14 9 C15.32 9.33 16.64 9.66 18 10 C16.02 10 14.04 10 12 10 C11.67 7.69 11.34 5.38 11 3 C10.01 5.31 9.02 7.62 8 10 C7.34 10 6.68 10 6 10 C5.34 8.02 4.68 6.04 4 4 C3.34 4 2.68 4 2 4 C2 5.98 2 7.96 2 10 C1.34 10 0.68 10 0 10 C0 6.7 0 3.4 0 0 Z " fill="#A8B497" transform="translate(224,385)"/>
<path d="M0 0 C3.0625 0.1875 3.0625 0.1875 5.0625 2.1875 C4.49431818 7.75568182 4.49431818 7.75568182 3.0625 9.1875 C0.125 9.4375 0.125 9.4375 -2.9375 9.1875 C-4.9375 6.1875 -4.9375 6.1875 -4.625 3.5625 C-3.63731654 0.1505026 -3.65603948 0.23336422 0 0 Z " fill="#B0BAA2" transform="translate(203.9375,385.8125)"/>
<path d="M0 0 C0.33 0.66 0.66 1.32 1 2 C0.505 2.4125 0.01 2.825 -0.5 3.25 C-2.43386092 5.12202338 -2.43386092 5.12202338 -2 9 C-2.99 8.67 -3.98 8.34 -5 8 C-5 7.34 -5 6.68 -5 6 C-5.928125 6.495 -6.85625 6.99 -7.8125 7.5 C-12.73968438 9.659445 -17.72281389 9.25765646 -23 9 C-23.33 7.68 -23.66 6.36 -24 5 C-23.34 4.67 -22.68 4.34 -22 4 C-21.34 4.33 -20.68 4.66 -20 5 C-12.13886357 6.0582299 -6.7030048 3.99327945 0 0 Z " fill="#4C7118" transform="translate(220,204)"/>
<path d="M0 0 C0.33 0 0.66 0 1 0 C1.34548714 6.33393082 0.29342747 11.10261508 -2 17 C-2.66 17 -3.32 17 -4 17 C-4.33 17.66 -4.66 18.32 -5 19 C-6.32 19 -7.64 19 -9 19 C-9.33 19.66 -9.66 20.32 -10 21 C-10 17.42003353 -9.07454637 16.76606183 -7 14 C-7 13.01 -7 12.02 -7 11 C-5.625 9.4375 -5.625 9.4375 -4 8 C-3.34 7.34 -2.68 6.68 -2 6 C-1.34 6.33 -0.68 6.66 0 7 C0 4.69 0 2.38 0 0 Z " fill="#B6C5A1" transform="translate(315,164)"/>
<path d="M0 0 C5.93002267 -0.37851209 10.47239641 0.89424625 16 3 C15.01 3.495 15.01 3.495 14 4 C13.53348793 6.12576782 13.53348793 6.12576782 13.375 8.5625 C13.30023438 9.38878906 13.22546875 10.21507812 13.1484375 11.06640625 C13.09945312 11.70449219 13.05046875 12.34257812 13 13 C12.34 13 11.68 13 11 13 C11 11.02 11 9.04 11 7 C10.51789063 7.3609375 10.03578125 7.721875 9.5390625 8.09375 C8.90742188 8.5578125 8.27578125 9.021875 7.625 9.5 C6.99851563 9.9640625 6.37203125 10.428125 5.7265625 10.90625 C4 12 4 12 2 12 C3.33332095 8.00003714 5.4957827 7.16217663 9 5 C6.03312999 3.35173889 3.34373475 2.55728913 0 2 C0 1.34 0 0.68 0 0 Z " fill="#4B7017" transform="translate(180,191)"/>
<path d="M0 0 C3.0625 0.1875 3.0625 0.1875 5.0625 2.1875 C5.3125 4.6875 5.3125 4.6875 5.0625 7.1875 C3.0625 9.1875 3.0625 9.1875 0.5625 9.4375 C-1.9375 9.1875 -1.9375 9.1875 -3.9375 7.1875 C-4.125 4.125 -4.125 4.125 -3.9375 1.1875 C-2.9375 0.1875 -2.9375 0.1875 0 0 Z " fill="#7D945D" transform="translate(284.9375,403.8125)"/>
<path d="M0 0 C2.9375 0.1875 2.9375 0.1875 3.9375 1.1875 C4.125 4.125 4.125 4.125 3.9375 7.1875 C1.9375 9.1875 1.9375 9.1875 -0.5625 9.4375 C-3.0625 9.1875 -3.0625 9.1875 -5.0625 7.1875 C-5.3125 4.6875 -5.3125 4.6875 -5.0625 2.1875 C-3.0625 0.1875 -3.0625 0.1875 0 0 Z " fill="#7D945D" transform="translate(236.0625,403.8125)"/>
<path d="M0 0 C2.9375 0.1875 2.9375 0.1875 3.9375 1.1875 C4.125 4.125 4.125 4.125 3.9375 7.1875 C1.9375 9.1875 1.9375 9.1875 -0.5625 9.4375 C-3.0625 9.1875 -3.0625 9.1875 -5.0625 7.1875 C-5.3125 4.6875 -5.3125 4.6875 -5.0625 2.1875 C-3.0625 0.1875 -3.0625 0.1875 0 0 Z " fill="#7D945D" transform="translate(336.0625,385.8125)"/>
<path d="M0 0 C2.9375 0.1875 2.9375 0.1875 3.9375 1.1875 C4.125 4.125 4.125 4.125 3.9375 7.1875 C1.9375 9.1875 1.9375 9.1875 -0.5625 9.4375 C-3.0625 9.1875 -3.0625 9.1875 -5.0625 7.1875 C-5.3125 4.6875 -5.3125 4.6875 -5.0625 2.1875 C-3.0625 0.1875 -3.0625 0.1875 0 0 Z " fill="#7D945D" transform="translate(259.0625,385.8125)"/>
<path d="M0 0 C2.5 0.25 2.5 0.25 4.5 2.25 C4.75 4.75 4.75 4.75 4.5 7.25 C2.5 9.25 2.5 9.25 0 9.5 C-2.5 9.25 -2.5 9.25 -4.5 7.25 C-4.75 4.75 -4.75 4.75 -4.5 2.25 C-2.5 0.25 -2.5 0.25 0 0 Z " fill="#7E955E" transform="translate(371.5,385.75)"/>
<path d="M0 0 C-1.14662449 4.87315408 -3.98760459 6.9957405 -7.890625 9.7734375 C-10.55680968 11.32377452 -12.93201552 11.84660078 -16 12 C-16 10.68 -16 9.36 -16 8 C-15.360625 7.896875 -14.72125 7.79375 -14.0625 7.6875 C-13.381875 7.460625 -12.70125 7.23375 -12 7 C-11.67 6.01 -11.34 5.02 -11 4 C-3.92307692 0 -3.92307692 0 0 0 Z " fill="#8FA66F" transform="translate(313,181)"/>
<path d="M0 0 C0.66 0 1.32 0 2 0 C4 3 4 3 4 6 C4.66 6 5.32 6 6 6 C6 6.66 6 7.32 6 8 C5.34 8 4.68 8 4 8 C4 8.66 4 9.32 4 10 C4.99 10.33 5.98 10.66 7 11 C6.01 11 5.02 11 4 11 C4.95865509 13.33075929 4.95865509 13.33075929 8 15 C7.34 15 6.68 15 6 15 C6 15.99 6 16.98 6 18 C3.46045883 16.73022941 2.8315325 15.35227757 1.375 12.9375 C0.92898438 12.20402344 0.48296875 11.47054688 0.0234375 10.71484375 C-0.31429687 10.14894531 -0.65203125 9.58304687 -1 9 C-0.34 8.67 0.32 8.34 1 8 C0.67 5.36 0.34 2.72 0 0 Z " fill="#DAE1CF" transform="translate(256,250)"/>
<path d="M0 0 C0.99 0.33 1.98 0.66 3 1 C2.67 1.66 2.34 2.32 2 3 C1.34 3 0.68 3 0 3 C0 4.98 0 6.96 0 9 C1.32 8.67 2.64 8.34 4 8 C4.33 9.98 4.66 11.96 5 14 C4.01 14.66 3.02 15.32 2 16 C1.67 15.01 1.34 14.02 1 13 C-0.98 13.99 -0.98 13.99 -3 15 C-3 13.68 -3 12.36 -3 11 C-3.99 10.67 -4.98 10.34 -6 10 C-5.01 9.67 -4.02 9.34 -3 9 C-2.09162237 6.52260646 -2 4.66420516 -2 2 C-1.34 2 -0.68 2 0 2 C0 1.34 0 0.68 0 0 Z " fill="#C3D0B2" transform="translate(265,280)"/>
<path d="M0 0 C1.98 0 3.96 0 6 0 C6.84454356 3.37817425 7.10844919 5.67465243 6 9 C4.02 9 2.04 9 0 9 C0 6.03 0 3.06 0 0 Z " fill="#93A57B" transform="translate(290,386)"/>
<path d="M0 0 C0.804375 0.25523437 0.804375 0.25523437 1.625 0.515625 C7.10750301 2.21087264 12.62540079 3.71769078 18.1875 5.125 C19.18426758 5.38071777 19.18426758 5.38071777 20.20117188 5.64160156 C24.46062202 6.70540664 28.65282 7.44744016 33 8 C33 8.33 33 8.66 33 9 C21.15339097 9.86157157 9.0438306 6.0159384 -2 2 C-1.34 1.34 -0.68 0.68 0 0 Z " fill="#DEE5D5" transform="translate(210,307)"/>
<path d="M0 0 C1.32 0.33 2.64 0.66 4 1 C4 1.66 4 2.32 4 3 C4.66 2.67 5.32 2.34 6 2 C6 2.99 6 3.98 6 5 C4 7 4 7 2.125 7.23046875 C1.073125 7.20919922 1.073125 7.20919922 0 7.1875 C-0.70125 7.18105469 -1.4025 7.17460937 -2.125 7.16796875 C-4 7 -4 7 -6 6 C-6 4.35 -6 2.7 -6 1 C-3.83125748 1.50603992 -2.00032373 1.99983813 0 3 C0 2.01 0 1.02 0 0 Z " fill="#6C8A41" transform="translate(264,292)"/>
<path d="M0 0 C2.02264538 0.59350701 2.02264538 0.59350701 3.953125 -0.625 C3.953125 0.365 3.953125 1.355 3.953125 2.375 C2.265625 3.0625 2.265625 3.0625 -0.046875 3.375 C-0.871875 2.859375 -1.696875 2.34375 -2.546875 1.8125 C-3.371875 1.338125 -4.196875 0.86375 -5.046875 0.375 C-7.34975293 1.06640351 -7.34975293 1.06640351 -9.046875 2.375 C-7.726875 2.705 -6.406875 3.035 -5.046875 3.375 C-5.046875 3.705 -5.046875 4.035 -5.046875 4.375 C-9.45749636 5.4007259 -11.97318076 5.41184712 -16.046875 3.375 C-14.43995409 0.60752511 -13.49956906 -0.47410198 -10.421875 -1.5 C-6.65599977 -1.63947686 -3.61467162 -0.98358411 0 0 Z " fill="#B8C7A4" transform="translate(279.046875,189.625)"/>
<path d="M0 0 C0.33 1.32 0.66 2.64 1 4 C-1.85021875 6.32240046 -4.46355091 7.93906527 -8 9 C-10.3125 8.625 -10.3125 8.625 -12 8 C-10.96706853 5.17427942 -10.32047018 4.17021695 -7.6171875 2.734375 C-6.71226562 2.40953125 -5.80734375 2.0846875 -4.875 1.75 C-3.96492187 1.41484375 -3.05484375 1.0796875 -2.1171875 0.734375 C-1.41851562 0.49203125 -0.71984375 0.2496875 0 0 Z " fill="#9AAF7D" transform="translate(215,209)"/>
<path d="M0 0 C1.60875 0.7734375 1.60875 0.7734375 3.25 1.5625 C5.71477612 2.63240282 6.72132303 3.03572782 9.4375 2.6875 C9.953125 2.460625 10.46875 2.23375 11 2 C11.33 2.66 11.66 3.32 12 4 C12.66 4 13.32 4 14 4 C14 4.66 14 5.32 14 6 C8.06 6 2.12 6 -4 6 C-3.01 5.34 -2.02 4.68 -1 4 C-1.99 3.67 -2.98 3.34 -4 3 C-2.68 2.67 -1.36 2.34 0 2 C0 1.34 0 0.68 0 0 Z " fill="#849D60" transform="translate(273,189)"/>
<path d="M0 0 C1.98 0 3.96 0 6 0 C6.82638376 2.89234315 7 4.88742431 7 8 C6.01 8 5.02 8 4 8 C3.67 7.34 3.34 6.68 3 6 C2.67 6.99 2.34 7.98 2 9 C1.34 9 0.68 9 0 9 C0 6.03 0 3.06 0 0 Z " fill="#9AAA84" transform="translate(139,386)"/>
<path d="M0 0 C1.65 0.33 3.3 0.66 5 1 C5.33 1.99 5.66 2.98 6 4 C3.50494038 6.49505962 2.32671112 6.35948376 -1.125 6.625 C-2.03507813 6.69976562 -2.94515625 6.77453125 -3.8828125 6.8515625 C-4.93082031 6.92503906 -4.93082031 6.92503906 -6 7 C-5.67 5.02 -5.34 3.04 -5 1 C-4.34 1.66 -3.68 2.32 -3 3 C-2.01 2.67 -1.02 2.34 0 2 C0 1.34 0 0.68 0 0 Z " fill="#88A166" transform="translate(234,199)"/>
<path d="M0 0 C9.3867795 -0.64000769 18.39099052 2.52328463 27 6 C26.67 6.99 26.34 7.98 26 9 C25.21238281 8.67386719 24.42476563 8.34773438 23.61328125 8.01171875 C15.84592538 4.89558426 8.2015178 2.65104204 0 1 C0 0.67 0 0.34 0 0 Z " fill="#D7DFCB" transform="translate(266,115)"/>
<path d="M0 0 C1.98 0 3.96 0 6 0 C6.33 1.32 6.66 2.64 7 4 C5.35 4.33 3.7 4.66 2 5 C2 6.32 2 7.64 2 9 C1.34 9 0.68 9 0 9 C0 6.03 0 3.06 0 0 Z " fill="#95A67E" transform="translate(291,404)"/>
<path d="M0 0 C1.98 0 3.96 0 6 0 C5.814375 0.928125 5.62875 1.85625 5.4375 2.8125 C4.75876119 6.01343771 4.75876119 6.01343771 6 9 C5.34 9 4.68 9 4 9 C3.67 7.68 3.34 6.36 3 5 C2.34 5 1.68 5 1 5 C0.67 6.32 0.34 7.64 0 9 C0 6.03 0 3.06 0 0 Z " fill="#A3B090" transform="translate(273,404)"/>
<path d="M0 0 C1.98 0 3.96 0 6 0 C5.814375 0.928125 5.62875 1.85625 5.4375 2.8125 C4.75876119 6.01343771 4.75876119 6.01343771 6 9 C5.34 9 4.68 9 4 9 C3.67 7.68 3.34 6.36 3 5 C2.34 5 1.68 5 1 5 C0.67 6.32 0.34 7.64 0 9 C0 6.03 0 3.06 0 0 Z " fill="#A3B090" transform="translate(251,404)"/>
<path d="M0 0 C1.98 0 3.96 0 6 0 C5.814375 0.928125 5.62875 1.85625 5.4375 2.8125 C4.75876119 6.01343771 4.75876119 6.01343771 6 9 C5.34 9 4.68 9 4 9 C3.67 7.68 3.34 6.36 3 5 C2.34 5 1.68 5 1 5 C0.67 6.32 0.34 7.64 0 9 C0 6.03 0 3.06 0 0 Z " fill="#A3B090" transform="translate(212,404)"/>
<path d="M0 0 C0.99 0.33 1.98 0.66 3 1 C3.73046875 2.84765625 3.73046875 2.84765625 4.1875 5.0625 C4.34605469 5.79597656 4.50460937 6.52945312 4.66796875 7.28515625 C4.83232422 8.13400391 4.83232422 8.13400391 5 9 C4.34 9 3.68 9 3 9 C3 8.34 3 7.68 3 7 C1.68 7 0.36 7 -1 7 C-1 7.66 -1 8.32 -1 9 C-1.66 9 -2.32 9 -3 9 C-2.01 6.03 -1.02 3.06 0 0 Z " fill="#A5B293" transform="translate(280,386)"/>
<path d="M0 0 C0.99 0.33 1.98 0.66 3 1 C3.73046875 2.84765625 3.73046875 2.84765625 4.1875 5.0625 C4.34605469 5.79597656 4.50460938 6.52945312 4.66796875 7.28515625 C4.83232422 8.13400391 4.83232422 8.13400391 5 9 C4.34 9 3.68 9 3 9 C3 8.34 3 7.68 3 7 C1.68 7 0.36 7 -1 7 C-1 7.66 -1 8.32 -1 9 C-1.66 9 -2.32 9 -3 9 C-2.01 6.03 -1.02 3.06 0 0 Z " fill="#A5B293" transform="translate(133,386)"/>
<path d="M0 0 C1.98 0 3.96 0 6 0 C5.814375 0.928125 5.62875 1.85625 5.4375 2.8125 C4.75876119 6.01343771 4.75876119 6.01343771 6 9 C5.34 9 4.68 9 4 9 C3.67 7.68 3.34 6.36 3 5 C2.34 5 1.68 5 1 5 C0.67 6.32 0.34 7.64 0 9 C0 6.03 0 3.06 0 0 Z " fill="#A3B090" transform="translate(174,386)"/>
<path d="M0 0 C1.5 1.125 1.5 1.125 3 3 C3.1875 6.1875 3.1875 6.1875 3 9 C1.68 8.67 0.36 8.34 -1 8 C-0.34 6.68 0.32 5.36 1 4 C-0.65 3.67 -2.3 3.34 -4 3 C-4 3.66 -4 4.32 -4 5 C-5.98 5.99 -5.98 5.99 -8 7 C-8.33 5.68 -8.66 4.36 -9 3 C-8.01 3 -7.02 3 -6 3 C-6 2.34 -6 1.68 -6 1 C-3.03 1.495 -3.03 1.495 0 2 C0 1.34 0 0.68 0 0 Z " fill="#C5D0B3" transform="translate(238,196)"/>
<path d="M0 0 C5.86288556 -0.61714585 10.85400392 1.34462726 16 4 C16.33 4.66 16.66 5.32 17 6 C16.67 6.66 16.34 7.32 16 8 C15.01 7.67 14.02 7.34 13 7 C12.67 6.34 12.34 5.68 12 5 C9.19521805 4.08514427 9.19521805 4.08514427 5.9375 3.375 C4.83277344 3.11460937 3.72804687 2.85421875 2.58984375 2.5859375 C1.30787109 2.29589844 1.30787109 2.29589844 0 2 C0 1.34 0 0.68 0 0 Z " fill="#68873C" transform="translate(194,182)"/>
<path d="M0 0 C1.67542976 0.28604898 3.34385343 0.61781233 5 1 C5 2.65 5 4.3 5 6 C3.34385343 6.38218767 1.67542976 6.71395102 0 7 C-1 6 -1 6 -1.125 3.5 C-1 1 -1 1 0 0 Z " fill="#496D17" transform="translate(204,405)"/>
<path d="M0 0 C1.67542976 0.28604898 3.34385343 0.61781233 5 1 C5 2.65 5 4.3 5 6 C3.34385343 6.38218767 1.67542976 6.71395102 0 7 C-1 6 -1 6 -1.125 3.5 C-1 1 -1 1 0 0 Z " fill="#496D17" transform="translate(202,387)"/>
<path d="M0 0 C1.65 0 3.3 0 5 0 C4.67 0.66 4.34 1.32 4 2 C3.01 1.67 2.02 1.34 1 1 C1.680625 1.5775 2.36125 2.155 3.0625 2.75 C3.701875 3.4925 4.34125 4.235 5 5 C4.75 7.25 4.75 7.25 4 9 C2.35 8.67 0.7 8.34 -1 8 C-1 4.88742431 -0.82638376 2.89234315 0 0 Z " fill="#9DAC89" transform="translate(300,404)"/>
<path d="M0 0 C1.65 0 3.3 0 5 0 C4.67 0.66 4.34 1.32 4 2 C3.01 1.67 2.02 1.34 1 1 C1.680625 1.5775 2.36125 2.155 3.0625 2.75 C3.701875 3.4925 4.34125 4.235 5 5 C4.75 7.25 4.75 7.25 4 9 C2.35 8.67 0.7 8.34 -1 8 C-1 4.88742431 -0.82638376 2.89234315 0 0 Z " fill="#9DAC89" transform="translate(388,386)"/>
<path d="M0 0 C1.65 0 3.3 0 5 0 C4.67 0.66 4.34 1.32 4 2 C3.01 1.67 2.02 1.34 1 1 C1.680625 1.5775 2.36125 2.155 3.0625 2.75 C3.701875 3.4925 4.34125 4.235 5 5 C4.75 7.25 4.75 7.25 4 9 C2.35 8.67 0.7 8.34 -1 8 C-1 4.88742431 -0.82638376 2.89234315 0 0 Z " fill="#9DAC89" transform="translate(306,386)"/>
<path d="M0 0 C0.33 0 0.66 0 1 0 C1.64649305 2.89568747 2.29221732 5.79154279 2.9375 8.6875 C3.11990234 9.50412109 3.30230469 10.32074219 3.49023438 11.16210938 C4.36727628 15.10082483 5.23340455 19.03791195 6 23 C5.34 23.33 4.68 23.66 4 24 C3.32114013 21.50276548 2.65682573 19.00303859 2 16.5 C1.80921875 15.80390625 1.6184375 15.1078125 1.421875 14.390625 C0.14322988 9.4587081 -0.18357474 5.09419909 0 0 Z " fill="#C7D3B7" transform="translate(162,216)"/>
<path d="M0 0 C0.33 0 0.66 0 1 0 C1 3.96 1 7.92 1 12 C0.34 12 -0.32 12 -1 12 C-1.33 13.32 -1.66 14.64 -2 16 C-2.05384521 13.70858714 -2.09272087 11.41681812 -2.125 9.125 C-2.14820313 7.84882813 -2.17140625 6.57265625 -2.1953125 5.2578125 C-2 2 -2 2 0 0 Z " fill="#CED8BF" transform="translate(242,211)"/>
<path d="M0 0 C2.64 0 5.28 0 8 0 C6.75 2.5 6.75 2.5 5 5 C3.68 5 2.36 5 1 5 C0.67 6.32 0.34 7.64 0 9 C0 6.03 0 3.06 0 0 Z " fill="#889C6B" transform="translate(195,404)"/>
<path d="M0 0 C1.67542976 0.28604898 3.34385343 0.61781233 5 1 C5 4 5 4 4 7 C2.35 6.67 0.7 6.34 -1 6 C-1.042721 4.33388095 -1.04063832 2.66617115 -1 1 C-0.67 0.67 -0.34 0.34 0 0 Z " fill="#4E711D" transform="translate(216,387)"/>
<path d="M0 0 C1.32 0.33 2.64 0.66 4 1 C3.67 1.99 3.34 2.98 3 4 C2.01 3.67 1.02 3.34 0 3 C0 3.66 0 4.32 0 5 C0.66 5.33 1.32 5.66 2 6 C1.01 6.33 0.02 6.66 -1 7 C-1.66 6.34 -2.32 5.68 -3 5 C-3.99 5.33 -4.98 5.66 -6 6 C-5.67 4.68 -5.34 3.36 -5 2 C-5.66 1.67 -6.32 1.34 -7 1 C-4.69 1.33 -2.38 1.66 0 2 C0 1.34 0 0.68 0 0 Z " fill="#B7C6A3" transform="translate(297,186)"/>
<path d="M0 0 C0.28875 0.598125 0.5775 1.19625 0.875 1.8125 C2.04742026 4.19327792 2.04742026 4.19327792 4 7 C2.68 8.98 1.36 10.96 0 13 C-0.8968714 10.3093858 -1.27859126 8.11102904 -1.5625 5.3125 C-1.64628906 4.50425781 -1.73007813 3.69601563 -1.81640625 2.86328125 C-1.87699219 2.24839844 -1.93757812 1.63351563 -2 1 C-1.34 0.67 -0.68 0.34 0 0 Z " fill="#EDF1E8" transform="translate(242,199)"/>
<path d="M0 0 C0.99 0.66 1.98 1.32 3 2 C3.1875 5.125 3.1875 5.125 3 8 C1.35 7.67 -0.3 7.34 -2 7 C-2.33 5.35 -2.66 3.7 -3 2 C-2.01 1.34 -1.02 0.68 0 0 Z " fill="#A3B688" transform="translate(267,272)"/>
<path d="M0 0 C2.31 0 4.62 0 7 0 C7.33 0.99 7.66 1.98 8 3 C7.01 3 6.02 3 5 3 C5 3.99 5 4.98 5 6 C3.68 5.67 2.36 5.34 1 5 C0.67 3.35 0.34 1.7 0 0 Z " fill="#859E62" transform="translate(198,213)"/>
<path d="M0 0 C4.75 -0.125 4.75 -0.125 7 1 C7 1.99 7 2.98 7 4 C3.7 4.66 0.4 5.32 -3 6 C-2 4 -1 2 0 0 Z " fill="#8AA268" transform="translate(261,192)"/>
<path d="M0 0 C4.82834996 0.34488214 9.66393125 1.83713993 14 4 C14.33 4.66 14.66 5.32 15 6 C9.30694567 4.76123355 3.64629987 3.43723997 -2 2 C-1.34 1.34 -0.68 0.68 0 0 Z " fill="#587A27" transform="translate(276,183)"/>
<path d="M0 0 C1.65 0 3.3 0 5 0 C5.33 0.66 5.66 1.32 6 2 C4.35 1.67 2.7 1.34 1 1 C2.25541557 3.51083114 3.50063488 3.87125446 6 5 C5.67 6.32 5.34 7.64 5 9 C3.35 9 1.7 9 0 9 C-0.33 8.01 -0.66 7.02 -1 6 C1.475 6.99 1.475 6.99 4 8 C4 7.01 4 6.02 4 5 C2.68 4.67 1.36 4.34 0 4 C0 2.68 0 1.36 0 0 Z " fill="#B0BAA2" transform="translate(324,386)"/>
<path d="M0 0 C1.98 0.66 3.96 1.32 6 2 C2.12766576 4.58155616 0.46463981 5.12134154 -4.125 5.0625 C-5.03507813 5.05347656 -5.94515625 5.04445312 -6.8828125 5.03515625 C-7.58148438 5.02355469 -8.28015625 5.01195312 -9 5 C-8.01 4.67 -7.02 4.34 -6 4 C-5.67 3.34 -5.34 2.68 -5 2 C-3.33333333 2 -1.66666667 2 0 2 C0 1.34 0 0.68 0 0 Z " fill="#D9E1CE" transform="translate(209,205)"/>
<path d="M0 0 C1.98 0 3.96 0 6 0 C6.33 1.32 6.66 2.64 7 4 C4.625 4.625 4.625 4.625 2 5 C1.34 4.34 0.68 3.68 0 3 C0 2.01 0 1.02 0 0 Z " fill="#466C11" transform="translate(186,208)"/>
<path d="M0 0 C0.66 0 1.32 0 2 0 C0.35821735 4.77609498 -2.26546702 8.79382904 -5 13 C-5.66 12.34 -6.32 11.68 -7 11 C-5.88368586 9.16136495 -4.75670373 7.32920277 -3.625 5.5 C-2.99851563 4.4790625 -2.37203125 3.458125 -1.7265625 2.40625 C-1.15679687 1.6121875 -0.58703125 0.818125 0 0 Z " fill="#557824" transform="translate(252,184)"/>
<path d="M0 0 C0.99 0 1.98 0 3 0 C2.5206753 4.31392226 1.2542015 6.16569547 -2 9 C-2.66 8.67 -3.32 8.34 -4 8 C-3.67 7.01 -3.34 6.02 -3 5 C-2.34 5 -1.68 5 -1 5 C-0.67 3.35 -0.34 1.7 0 0 Z " fill="#96AC78" transform="translate(226,200)"/>
<path d="M0 0 C3.43440322 5.95296558 3.13326437 12.33678156 3 19 C2.67 19 2.34 19 2 19 C1.46678738 16.77376199 0.94889881 14.54384996 0.4375 12.3125 C0.14746094 11.07113281 -0.14257812 9.82976562 -0.44140625 8.55078125 C-0.96241956 5.23888546 -0.91852996 3.18139847 0 0 Z " fill="#BAC8A7" transform="translate(360,175)"/>
<path d="M0 0 C1.65 0 3.3 0 5 0 C4.01 0.33 3.02 0.66 2 1 C2 1.99 2 2.98 2 4 C2.99 4.33 3.98 4.66 5 5 C4.01 5 3.02 5 2 5 C2 5.99 2 6.98 2 8 C3.32 8.33 4.64 8.66 6 9 C4.02 9 2.04 9 0 9 C0 6.03 0 3.06 0 0 Z " fill="#B0BAA2" transform="translate(147,386)"/>
<path d="M0 0 C1.65 0 3.3 0 5 0 C4.67 1.32 4.34 2.64 4 4 C3.34 4 2.68 4 2 4 C2 5.98 2 7.96 2 10 C1.34 10 0.68 10 0 10 C0 6.7 0 3.4 0 0 Z " fill="#879B6A" transform="translate(224,385)"/>
<path d="M0 0 C0.66 0 1.32 0 2 0 C4 3 4 3 4 6 C4.66 6 5.32 6 6 6 C6 6.66 6 7.32 6 8 C5.34 8 4.68 8 4 8 C3.67 8.66 3.34 9.32 3 10 C3 9.01 3 8.02 3 7 C2.34 7 1.68 7 1 7 C0.67 4.69 0.34 2.38 0 0 Z " fill="#CCD6BD" transform="translate(256,250)"/>
<path d="M0 0 C1.65 0 3.3 0 5 0 C4.01 0.33 3.02 0.66 2 1 C2 1.99 2 2.98 2 4 C2.99 4.33 3.98 4.66 5 5 C4.01 5 3.02 5 2 5 C2 5.99 2 6.98 2 8 C2.99 8.33 3.98 8.66 5 9 C3.35 9 1.7 9 0 9 C0 6.03 0 3.06 0 0 Z " fill="#B4BDA7" transform="translate(298,386)"/>
<path d="M0 0 C1.65 0 3.3 0 5 0 C4.01 0.33 3.02 0.66 2 1 C2 1.99 2 2.98 2 4 C2.99 4.33 3.98 4.66 5 5 C4.01 5 3.02 5 2 5 C2 5.99 2 6.98 2 8 C2.99 8.33 3.98 8.66 5 9 C3.35 9 1.7 9 0 9 C0 6.03 0 3.06 0 0 Z " fill="#B4BDA7" transform="translate(167,386)"/>
<path d="M0 0 C0.99 0.33 1.98 0.66 3 1 C2.67 2.32 2.34 3.64 2 5 C-0.31 5.66 -2.62 6.32 -5 7 C-4.6189482 4.23737447 -4.16402868 3.15856106 -2.125 1.1875 C-1.42375 0.795625 -0.7225 0.40375 0 0 Z " fill="#F8F9F6" transform="translate(253,189)"/>
<path d="M0 0 C2.97 0.99 5.94 1.98 9 3 C8.01 3.99 7.02 4.98 6 6 C3.3125 5.6875 3.3125 5.6875 1 5 C0.67 3.35 0.34 1.7 0 0 Z " fill="#DEE5D4" transform="translate(278,185)"/>
<path d="M0 0 C2.22606025 3.33909037 3.11033078 6.09914263 4 10 C3.55078125 12.22265625 3.55078125 12.22265625 3 14 C2.29866401 12.42274653 1.614417 10.83788667 0.9375 9.25 C0.55464844 8.36828125 0.17179687 7.4865625 -0.22265625 6.578125 C-1.04600008 3.84743691 -0.9773992 2.63098653 0 0 Z " fill="#E7ECE1" transform="translate(356,163)"/>
<path d="M0 0 C0.99 0.33 1.98 0.66 3 1 C-0.33333333 3.66666667 -3.66666667 6.33333333 -7 9 C-5.66087415 4.61740632 -3.87774964 2.45906075 0 0 Z " fill="#587B28" transform="translate(220,196)"/>
<path d="M0 0 C0.66 0 1.32 0 2 0 C1.34 4.62 0.68 9.24 0 14 C-0.33 14 -0.66 14 -1 14 C-1.22331199 12.41870971 -1.42804644 10.83478911 -1.625 9.25 C-1.74101562 8.36828125 -1.85703125 7.4865625 -1.9765625 6.578125 C-2.00207817 3.77140122 -1.44843844 2.36615134 0 0 Z " fill="#608132" transform="translate(257,165)"/>
<path d="M0 0 C2.35953094 2.35953094 2.49141413 3.77895617 3 7 C1.35 7 -0.3 7 -2 7 C-1.125 1.125 -1.125 1.125 0 0 Z " fill="#678440" transform="translate(157,345)"/>
<path d="M0 0 C2.35953094 2.35953094 2.49141413 3.77895617 3 7 C1.35 7 -0.3 7 -2 7 C-1.125 1.125 -1.125 1.125 0 0 Z " fill="#678440" transform="translate(101,345)"/>
<path d="M0 0 C0.99 0 1.98 0 3 0 C3 0.66 3 1.32 3 2 C4.98 2 6.96 2 9 2 C9 2.33 9 2.66 9 3 C7.35 3 5.7 3 4 3 C4 3.66 4 4.32 4 5 C1.525 4.01 1.525 4.01 -1 3 C-0.67 2.01 -0.34 1.02 0 0 Z " fill="#5D7C32" transform="translate(80,342)"/>
<path d="M0 0 C0.99 0.33 1.98 0.66 3 1 C3.33 2.65 3.66 4.3 4 6 C2.35 6.33 0.7 6.66 -1 7 C-0.67 4.69 -0.34 2.38 0 0 Z " fill="#77934F" transform="translate(265,267)"/>
<path d="M0 0 C0.78890625 0.30164063 1.5778125 0.60328125 2.390625 0.9140625 C3.18984375 1.21054688 3.9890625 1.50703125 4.8125 1.8125 C5.41578125 2.05226562 6.0190625 2.29203125 6.640625 2.5390625 C6.640625 3.1990625 6.640625 3.8590625 6.640625 4.5390625 C2.350625 3.5490625 -1.939375 2.5590625 -6.359375 1.5390625 C-2.359375 -0.4609375 -2.359375 -0.4609375 0 0 Z " fill="#5B7D2C" transform="translate(293.359375,170.4609375)"/>
<path d="M0 0 C4.455 0.99 4.455 0.99 9 2 C9 2.33 9 2.66 9 3 C7.35 3 5.7 3 4 3 C4 3.66 4 4.32 4 5 C2.68 4.67 1.36 4.34 0 4 C0 2.68 0 1.36 0 0 Z " fill="#5F7E35" transform="translate(446,342)"/>
<path d="M0 0 C4.455 0.99 4.455 0.99 9 2 C9 2.33 9 2.66 9 3 C7.35 3 5.7 3 4 3 C4 3.66 4 4.32 4 5 C2.68 4.67 1.36 4.34 0 4 C0 2.68 0 1.36 0 0 Z " fill="#5F7E35" transform="translate(299,342)"/>
<path d="M0 0 C0.99 0 1.98 0 3 0 C2.67 0.66 2.34 1.32 2 2 C0.99515117 4.33124929 -0.00522247 6.66443537 -1 9 C-1.66 8.67 -2.32 8.34 -3 8 C-2.67 6.02 -2.34 4.04 -2 2 C-1.34 2 -0.68 2 0 2 C0 1.34 0 0.68 0 0 Z " fill="#CDD7BF" transform="translate(264,266)"/>
<path d="M0 0 C0 0.66 0 1.32 0 2 C-3.3 2.66 -6.6 3.32 -10 4 C-9.67 3.01 -9.34 2.02 -9 1 C-5.8035914 -0.06546953 -3.34252724 -0.07427838 0 0 Z " fill="#6D8B42" transform="translate(308,156)"/>
<path d="M0 0 C0 0.99 0 1.98 0 3 C-1.32 3 -2.64 3 -4 3 C-4 2.34 -4 1.68 -4 1 C-5.98 1 -7.96 1 -10 1 C-10 0.67 -10 0.34 -10 0 C-6.33694766 -0.74926071 -3.57644848 -1.2380014 0 0 Z " fill="#507220" transform="translate(450,352)"/>
<path d="M0 0 C0 0.99 0 1.98 0 3 C-1.32 3 -2.64 3 -4 3 C-4 2.34 -4 1.68 -4 1 C-5.98 1 -7.96 1 -10 1 C-10 0.67 -10 0.34 -10 0 C-6.33694766 -0.74926071 -3.57644848 -1.2380014 0 0 Z " fill="#507220" transform="translate(303,352)"/>
<path d="M0 0 C0.99 0 1.98 0 3 0 C3 0.66 3 1.32 3 2 C2.34 2 1.68 2 1 2 C0.87625 2.804375 0.7525 3.60875 0.625 4.4375 C0.41875 5.283125 0.2125 6.12875 0 7 C-0.99 7.495 -0.99 7.495 -2 8 C-2.33 5.69 -2.66 3.38 -3 1 C-2.01 1.33 -1.02 1.66 0 2 C0 1.34 0 0.68 0 0 Z " fill="#C3CFB1" transform="translate(250,194)"/>
<path d="M0 0 C0.33 0 0.66 0 1 0 C1.25 7.625 1.25 7.625 -1 11 C-2.32 10.34 -3.64 9.68 -5 9 C-4.01 8.01 -3.02 7.02 -2 6 C-1.34 6.33 -0.68 6.66 0 7 C0 4.69 0 2.38 0 0 Z " fill="#BAC8A6" transform="translate(315,164)"/>
<path d="M0 0 C1.65 0 3.3 0 5 0 C5 1.32 5 2.64 5 4 C3.35 4 1.7 4 0 4 C0 2.68 0 1.36 0 0 Z " fill="#476C15" transform="translate(198,343)"/>
<path d="M0 0 C1.32 0 2.64 0 4 0 C4 0.99 4 1.98 4 3 C2.35 3.66 0.7 4.32 -1 5 C-1 1 -1 1 0 0 Z " fill="#D1DAC4" transform="translate(216,202)"/>
<path d="M0 0 C1.32 0.33 2.64 0.66 4 1 C4 1.66 4 2.32 4 3 C1.5 4.625 1.5 4.625 -1 6 C-1.66 5.34 -2.32 4.68 -3 4 C-2.67 3.34 -2.34 2.68 -2 2 C-1.34 2 -0.68 2 0 2 C0 1.34 0 0.68 0 0 Z " fill="#93A973" transform="translate(253,194)"/>
<path d="M0 0 C0.99 0.33 1.98 0.66 3 1 C0.69 2.65 -1.62 4.3 -4 6 C-4.66 5.34 -5.32 4.68 -6 4 C-3.1875 1.9375 -3.1875 1.9375 0 0 Z " fill="#5F8031" transform="translate(208,194)"/>
<path d="M0 0 C2.475 0.495 2.475 0.495 5 1 C5 2.98 5 4.96 5 7 C4.34 7 3.68 7 3 7 C2.67 5.35 2.34 3.7 2 2 C1.34 2 0.68 2 0 2 C0 1.34 0 0.68 0 0 Z " fill="#E4EADD" transform="translate(243,196)"/>
<path d="M0 0 C0.99 0.33 1.98 0.66 3 1 C0.47211993 3.79872437 -1.20411134 5.45773019 -5 6 C-3.86525052 2.59575156 -3.03188696 1.78346291 0 0 Z " fill="#5F8031" transform="translate(187,197)"/>
<path d="M0 0 C3.375 -0.125 3.375 -0.125 7 0 C7.66 0.66 8.32 1.32 9 2 C5.67465243 3.10844919 3.37817425 2.84454356 0 2 C0 1.34 0 0.68 0 0 Z " fill="#597C2A" transform="translate(180,191)"/>
<path d="M0 0 C-1.24976756 3.65316671 -1.67098753 4.78065836 -5 7 C-5 5.02 -5 3.04 -5 1 C-2 0 -2 0 0 0 Z " fill="#69883E" transform="translate(313,181)"/>
<path d="M0 0 C4.93928888 -0.3367697 5.78492722 -0.16130459 10 3 C6.7 2.67 3.4 2.34 0 2 C0 1.34 0 0.68 0 0 Z " fill="#537621" transform="translate(194,182)"/>
<path d="M0 0 C0.33 0 0.66 0 1 0 C0.67 2.64 0.34 5.28 0 8 C-0.99 8.33 -1.98 8.66 -3 9 C-2.30058404 5.85262818 -1.23921302 2.97411124 0 0 Z " fill="#B2BCA5" transform="translate(117,386)"/>
<path d="M0 0 C2.31 0 4.62 0 7 0 C6.67 1.32 6.34 2.64 6 4 C4.02 3.34 2.04 2.68 0 2 C0 1.34 0 0.68 0 0 Z " fill="#496D17" transform="translate(325,387)"/>
<path d="M0 0 C0.99 0.33 1.98 0.66 3 1 C2.67 1.66 2.34 2.32 2 3 C1.34 3 0.68 3 0 3 C0 4.32 0 5.64 0 7 C-0.99 6.67 -1.98 6.34 -3 6 C-2.67 4.68 -2.34 3.36 -2 2 C-1.34 2 -0.68 2 0 2 C0 1.34 0 0.68 0 0 Z " fill="#DFE6D6" transform="translate(265,280)"/>
<path d="M0 0 C0 0.66 0 1.32 0 2 C-2.31 2.66 -4.62 3.32 -7 4 C-7.66 3.34 -8.32 2.68 -9 2 C-5.86501708 0.14223235 -3.62528568 -0.20140476 0 0 Z " fill="#618233" transform="translate(203,191)"/>
<path d="M0 0 C0.66 0.33 1.32 0.66 2 1 C2 1.66 2 2.32 2 3 C1.01 3 0.02 3 -1 3 C-1 3.99 -1 4.98 -1 6 C-0.34 6.33 0.32 6.66 1 7 C0.01 7 -0.98 7 -2 7 C-2.33 5.35 -2.66 3.7 -3 2 C-2.01 1.34 -1.02 0.68 0 0 Z " fill="#EAEEE4" transform="translate(267,272)"/>
<path d="M0 0 C0.33 0.66 0.66 1.32 1 2 C0.67 2.99 0.34 3.98 0 5 C-1.65 4.67 -3.3 4.34 -5 4 C-3 1 -3 1 0 0 Z " fill="#C9D5BA" transform="translate(192,212)"/>
<path d="M0 0 C3 3.875 3 3.875 3 5 C0.69 5 -1.62 5 -4 5 C-3.34 4.01 -2.68 3.02 -2 2 C-1.34 2 -0.68 2 0 2 C0 1.34 0 0.68 0 0 Z " fill="#819B5D" transform="translate(294,189)"/>
</svg>
